<svg width="32" height="9" viewBox="0 0 32 9" fill="none" xmlns="http://www.w3.org/2000/svg">
<path d="M4.84609 8.01302C4.38323 8.09458 3.91223 8.11903 3.425 8.18416L1.93888 3.81666V8.3716C1.47602 8.42048 1.05376 8.48566 0.615234 8.55085V0.206909H1.84961L3.53867 4.94119V0.206909H4.84609V8.01302ZM7.40411 3.26255C7.90763 3.26255 8.67908 3.2381 9.14194 3.2381V4.54181C8.56535 4.54181 7.89137 4.54181 7.40411 4.56627V6.50561C8.16749 6.45674 8.93083 6.39149 9.70225 6.36704V7.62182L6.10478 7.90707V0.206909H9.70225V1.51065H7.40411V3.26255ZM14.534 1.51068H13.186V7.50788C12.7475 7.50788 12.309 7.50788 11.8868 7.52413V1.51068H10.5388V0.206909H14.5341L14.534 1.51068ZM16.6454 3.17295H18.4239V4.47666H16.6454V7.43455H15.3704V0.206909H19.0004V1.51065H16.6454V3.17295ZM21.1118 6.29374C21.8508 6.31 22.5978 6.36713 23.3206 6.4078V7.69527C22.1594 7.62188 20.9981 7.54864 19.8125 7.52413V0.206909H21.1118V6.29374ZM24.4169 7.7849C24.831 7.80939 25.2696 7.83384 25.6918 7.88265V0.206909H24.4169V7.7849ZM31.3845 0.206909L29.7359 4.17518L31.3845 8.55085C30.8972 8.48566 30.4099 8.39603 29.9227 8.31453L28.9888 5.90266L28.0388 8.11903C27.5677 8.03748 27.113 8.01302 26.6421 7.94784L28.3149 4.12625L26.8044 0.206909H28.2011L29.0538 2.39883L29.9633 0.206909H31.3845Z" fill="#D81F26"/>
</svg>
