<svg width="154" height="30" viewBox="0 0 154 30" fill="none" xmlns="http://www.w3.org/2000/svg">
<path d="M15.0988 29.6908C12.4478 29.6908 10.0133 29.0686 7.79509 27.8243C5.57692 26.5799 3.81862 24.8622 2.52017 22.6711C1.22173 20.4529 0.572513 17.9507 0.572513 15.1645C0.572513 12.4053 1.22173 9.93013 2.52017 7.73901C3.81862 5.52084 5.57692 3.78958 7.79509 2.54524C10.0133 1.30091 12.4478 0.678738 15.0988 0.678738C17.7769 0.678738 20.2114 1.30091 22.4025 2.54524C24.6207 3.78958 26.3655 5.52084 27.6369 7.73901C28.9353 9.93013 29.5845 12.4053 29.5845 15.1645C29.5845 17.9507 28.9353 20.4529 27.6369 22.6711C26.3655 24.8622 24.6207 26.5799 22.4025 27.8243C20.1844 29.0686 17.7498 29.6908 15.0988 29.6908ZM15.0988 24.6187C16.803 24.6187 18.3043 24.24 19.6028 23.4826C20.9012 22.6981 21.9156 21.589 22.646 20.1553C23.3764 18.7217 23.7416 17.058 23.7416 15.1645C23.7416 13.2709 23.3764 11.6208 22.646 10.2142C21.9156 8.78047 20.9012 7.68491 19.6028 6.92748C18.3043 6.17006 16.803 5.79135 15.0988 5.79135C13.3946 5.79135 11.8798 6.17006 10.5543 6.92748C9.25584 7.68491 8.24143 8.78047 7.51106 10.2142C6.78068 11.6208 6.4155 13.2709 6.4155 15.1645C6.4155 17.058 6.78068 18.7217 7.51106 20.1553C8.24143 21.589 9.25584 22.6981 10.5543 23.4826C11.8798 24.24 13.3946 24.6187 15.0988 24.6187ZM48.4183 29.4067L42.1695 18.37H39.4915V29.4067H33.8108V1.0845H44.4418C46.6329 1.0845 48.4994 1.47674 50.0413 2.26121C51.5832 3.01864 52.7329 4.06009 53.4903 5.38559C54.2748 6.68403 54.667 8.14477 54.667 9.76782C54.667 11.6343 54.126 13.325 53.044 14.8399C51.9619 16.3277 50.3524 17.3556 48.2154 17.9237L54.9916 29.4067H48.4183ZM39.4915 14.1095H44.2389C45.7808 14.1095 46.9305 13.7443 47.6879 13.0139C48.4453 12.2565 48.824 11.215 48.824 9.88955C48.824 8.59111 48.4453 7.59023 47.6879 6.88691C46.9305 6.15653 45.7808 5.79135 44.2389 5.79135H39.4915V14.1095Z" fill="white"/>
<path d="M75.8732 14.8804C77.4692 15.178 78.7812 15.976 79.8091 17.2744C80.837 18.5729 81.351 20.0607 81.351 21.7378C81.351 23.2527 80.9723 24.5917 80.2149 25.7549C79.4845 26.891 78.416 27.7837 77.0093 28.4329C75.6027 29.0821 73.9391 29.4067 72.0185 29.4067H59.805V1.0845H71.491C73.4116 1.0845 75.0617 1.39559 76.4413 2.01775C77.8479 2.63992 78.9029 3.50555 79.6062 4.61464C80.3366 5.72372 80.7018 6.98158 80.7018 8.38823C80.7018 10.0383 80.2554 11.4179 79.3628 12.527C78.4971 13.6361 77.3339 14.4206 75.8732 14.8804ZM65.4857 12.7705H70.6794C72.032 12.7705 73.0734 12.4729 73.8038 11.8778C74.5342 11.2556 74.8994 10.3765 74.8994 9.24033C74.8994 8.10419 74.5342 7.22504 73.8038 6.60287C73.0734 5.9807 72.032 5.66962 70.6794 5.66962H65.4857V12.7705ZM71.2069 24.781C72.5865 24.781 73.655 24.4564 74.4125 23.8072C75.1969 23.158 75.5892 22.2383 75.5892 21.048C75.5892 19.8307 75.1834 18.884 74.3719 18.2077C73.5603 17.5044 72.4648 17.1527 71.0852 17.1527H65.4857V24.781H71.2069ZM91.5591 1.0845V29.4067H85.8784V1.0845H91.5591ZM107.072 1.0845C110.048 1.0845 112.658 1.66609 114.903 2.82928C117.176 3.99247 118.921 5.65609 120.138 7.82016C121.382 9.95718 122.004 12.4459 122.004 15.2862C122.004 18.1265 121.382 20.6152 120.138 22.7522C118.921 24.8622 117.176 26.4988 114.903 27.662C112.658 28.8251 110.048 29.4067 107.072 29.4067H97.1716V1.0845H107.072ZM106.869 24.5782C109.845 24.5782 112.144 23.7666 113.767 22.1436C115.39 20.5205 116.202 18.2347 116.202 15.2862C116.202 12.3377 115.39 10.0383 113.767 8.38823C112.144 6.71108 109.845 5.8725 106.869 5.8725H102.852V24.5782H106.869ZM139.403 29.6908C136.752 29.6908 134.318 29.0686 132.1 27.8243C129.881 26.5799 128.123 24.8622 126.825 22.6711C125.526 20.4529 124.877 17.9507 124.877 15.1645C124.877 12.4053 125.526 9.93013 126.825 7.73901C128.123 5.52084 129.881 3.78958 132.1 2.54524C134.318 1.30091 136.752 0.678738 139.403 0.678738C142.081 0.678738 144.516 1.30091 146.707 2.54524C148.925 3.78958 150.67 5.52084 151.941 7.73901C153.24 9.93013 153.889 12.4053 153.889 15.1645C153.889 17.9507 153.24 20.4529 151.941 22.6711C150.67 24.8622 148.925 26.5799 146.707 27.8243C144.489 29.0686 142.054 29.6908 139.403 29.6908ZM139.403 24.6187C141.107 24.6187 142.609 24.24 143.907 23.4826C145.206 22.6981 146.22 21.589 146.95 20.1553C147.681 18.7217 148.046 17.058 148.046 15.1645C148.046 13.2709 147.681 11.6208 146.95 10.2142C146.22 8.78047 145.206 7.68491 143.907 6.92748C142.609 6.17006 141.107 5.79135 139.403 5.79135C137.699 5.79135 136.184 6.17006 134.859 6.92748C133.56 7.68491 132.546 8.78047 131.816 10.2142C131.085 11.6208 130.72 13.2709 130.72 15.1645C130.72 17.058 131.085 18.7217 131.816 20.1553C132.546 21.589 133.56 22.6981 134.859 23.4826C136.184 24.24 137.699 24.6187 139.403 24.6187Z" fill="#D69300"/>
</svg>
